<svg xmlns="http://www.w3.org/2000/svg" viewBox="0 0 25.25 29.782">
  <defs>
    <style>
      .cls-1 {
        fill: #6bbbd7;
      }

      .cls-2 {
        fill: #0189ba;
      }
    </style>
  </defs>
  <g id="account" transform="translate(-38.956 0)">
    <g id="Group_91" data-name="Group 91" transform="translate(38.956 0)">
      <g id="Group_90" data-name="Group 90">
        <path id="Path_133" data-name="Path 133" class="cls-1" d="M63.234,3.884C58.642,3.884,55.47,2.4,52.119.163a.971.971,0,0,0-1.077,0C47.692,2.4,44.519,3.884,39.927,3.884a.971.971,0,0,0-.971.971v10.2A14.871,14.871,0,0,0,51.421,29.768a.972.972,0,0,0,.32,0A14.871,14.871,0,0,0,64.206,15.054V4.855A.971.971,0,0,0,63.234,3.884ZM51.581,23.307a8.74,8.74,0,1,1,8.74-8.74A8.75,8.75,0,0,1,51.581,23.307Z" transform="translate(-38.956 0)"/>
      </g>
    </g>
    <g id="Group_93" data-name="Group 93" transform="translate(44.783 7.769)">
      <g id="Group_92" data-name="Group 92" transform="translate(0)">
        <path id="Path_134" data-name="Path 134" class="cls-2" d="M145.928,133.564a6.786,6.786,0,0,0-5.383,10.934,8.7,8.7,0,0,1,3.252-1.609,3.561,3.561,0,1,1,4.261,0,8.706,8.706,0,0,1,3.253,1.607,6.786,6.786,0,0,0-5.384-10.933Z" transform="translate(-139.13 -133.564)"/>
      </g>
    </g>
  </g>
</svg>
