<svg xmlns="http://www.w3.org/2000/svg" width="27.875" height="27.874" viewBox="0 0 27.875 27.874"><g transform="translate(-3 -3)"><path d="M13,12.549A1.549,1.549,0,0,1,14.549,11H23.84a1.549,1.549,0,0,1,0,3.1H14.549A1.549,1.549,0,0,1,13,12.549Z" transform="translate(5.486 4.389)" fill="#0f55c6" fill-rule="evenodd"/><path d="M13,16.549A1.549,1.549,0,0,1,14.549,15H23.84a1.549,1.549,0,0,1,0,3.1H14.549A1.549,1.549,0,0,1,13,16.549Z" transform="translate(5.486 6.583)" fill="#0f55c6" fill-rule="evenodd"/><path d="M13,20.549A1.549,1.549,0,0,1,14.549,19H23.84a1.549,1.549,0,0,1,0,3.1H14.549A1.549,1.549,0,0,1,13,20.549Z" transform="translate(5.486 8.777)" fill="#0f55c6" fill-rule="evenodd"/><rect width="8" height="11" transform="translate(5.437 17.437)" fill="#adcdff"/><rect width="24" height="6" transform="translate(5.437 4.437)" fill="#adcdff"/><path d="M3,14.1A3.1,3.1,0,0,1,6.1,11h6.194a3.1,3.1,0,0,1,3.1,3.1v9.291a3.1,3.1,0,0,1-3.1,3.1H6.1a3.1,3.1,0,0,1-3.1-3.1Zm9.291,0H6.1v9.291h6.194Z" transform="translate(0 4.389)" fill="#0f55c6" fill-rule="evenodd"/><path d="M3,6.1A3.1,3.1,0,0,1,6.1,3h21.68a3.1,3.1,0,0,1,3.1,3.1v3.1a3.1,3.1,0,0,1-3.1,3.1H6.1A3.1,3.1,0,0,1,3,9.194Zm24.777,0H6.1v3.1h21.68Z" transform="translate(0 0)" fill="#0f55c6" fill-rule="evenodd"/></g></svg>