<svg xmlns="http://www.w3.org/2000/svg" width="29.449" height="29.828" viewBox="0 0 29.449 29.828"><g transform="translate(-3.244)"><path d="M416.757,8.787v4.75h4.75Z" transform="translate(-389.328 -8.273)" fill="#63646a"/><path d="M174.917,7.018V0H161.758V8.685a7.9,7.9,0,1,1,0,15.782v5.361h20.178V7.018ZM167.9,7.9V6.141h5.264V7.9Zm10.528,17.546h-10.4V23.687h10.4v1.755Zm0-3.509h-7.9V20.178h7.9Zm0-3.509h-7.018V16.669h7.018Zm0-3.509h-7.018V13.159h7.018Zm0-3.509h-7.9V9.65h7.9Z" transform="translate(-149.243)" fill="#63646a"/><path d="M6.086,355.277l-2.329,2.329a1.755,1.755,0,0,0,2.481,2.481l2.327-2.327A7.964,7.964,0,0,1,6.086,355.277Z" transform="translate(0 -334.498)" fill="#63646a"/><circle cx="6.141" cy="6.141" r="6.141" transform="translate(6.63 10.435)" fill="#63646a"/></g></svg>