<svg xmlns="http://www.w3.org/2000/svg" width="33.029" height="29.994" viewBox="0 0 33.029 29.994">
  <g id="megaphone-simple-duotone" transform="matrix(0.966, -0.259, 0.259, 0.966, 0, 7.214)">
    <path id="Path_7811" data-name="Path 7811" d="M32,43.907V57.552l12.565,3.854a1.072,1.072,0,0,0,1.372-1.028v-19.3a1.072,1.072,0,0,0-1.372-1.028Z" transform="translate(-19.135 -38.939)" fill="#3373de" opacity="0.2"/>
    <path id="Path_7812" data-name="Path 7812" d="M25.536,39.342,49.13,32.106a2.144,2.144,0,0,1,2.745,2.056v19.3a2.145,2.145,0,0,1-2.75,2.057L37.937,52.083v1.376A2.144,2.144,0,0,1,35.793,55.6H31.5a2.144,2.144,0,0,1-2.144-2.144V49.452L25.536,48.28A2.156,2.156,0,0,1,24,46.222V41.4A2.156,2.156,0,0,1,25.536,39.342Zm12.4,10.5L49.73,53.459v-19.3L37.937,37.78ZM31.5,53.459h4.288V51.425L31.5,50.109Zm-5.36-7.237h.015l9.634,2.959V38.439l-9.634,2.948h-.015v4.824Z" transform="translate(-24 -32.02)" fill="#3373de"/>
  </g>
</svg>
