<svg xmlns="http://www.w3.org/2000/svg" width="25" height="19" viewBox="0 0 25 19">
  <g id="Group_4982" data-name="Group 4982" transform="translate(-898 -728)">
    <g id="Group_4981" data-name="Group 4981">
      <g id="bxs-phone-call" transform="translate(895 726)">
        <path id="Path_6918" data-name="Path 6918" d="M16.422,13.443a1,1,0,0,0-1.391.043l-2.393,2.461a5.741,5.741,0,0,1-2.926-1.66,5.713,5.713,0,0,1-1.66-2.926l2.459-2.394a1,1,0,0,0,.043-1.391l-3.7-4.063a1,1,0,0,0-1.391-.087L3.3,5.287a1,1,0,0,0-.29.649A15.1,15.1,0,0,0,7.3,16.7,15.142,15.142,0,0,0,17.7,21c.2,0,.326-.006.359-.008a.992.992,0,0,0,.648-.291l1.86-2.171a1,1,0,0,0-.086-1.391Z" fill="#0b1b98"/>
      </g>
      <rect id="Rectangle_1990" data-name="Rectangle 1990" width="14" height="3" rx="1.5" transform="translate(909 728)" fill="#bdccfc"/>
      <rect id="Rectangle_1991" data-name="Rectangle 1991" width="10" height="3" rx="1.5" transform="translate(910 733)" fill="#bdccfc"/>
    </g>
  </g>
</svg>
