<svg xmlns="http://www.w3.org/2000/svg" width="30" height="30" viewBox="0 0 30 30"><g transform="translate(13486 836.331)"><g transform="translate(34.669 34.669)"><path d="M-13380-805v8.2h22.689V-805" transform="translate(-137.012 -62.014)" fill="none" stroke="#efb76a" stroke-linecap="round" stroke-linejoin="round" stroke-width="1"/><path d="M-13508-858v7.848" transform="translate(2.331 -6.335)" fill="none" stroke="#ef961a" stroke-linecap="round" stroke-width="1"/><circle cx="4" cy="4" r="4" transform="translate(-13520.669 -870.669)" fill="#efb76a"/><circle cx="4" cy="4" r="4" transform="translate(-13498.669 -870.669)" fill="#efb76a"/><g transform="translate(-13514.089 -855.033)"><g transform="translate(0 0)"><path d="M15.436,44.771H11.928v-.7a1.4,1.4,0,0,0-1.4-1.4H6.315a1.4,1.4,0,0,0-1.4,1.4v.7H1.4a1.4,1.4,0,0,0-1.4,1.4v2.1a1.4,1.4,0,0,0,1.4,1.4H7.016v-.351a.351.351,0,0,1,.351-.351h2.1a.351.351,0,0,1,.351.351v.351h5.613a1.4,1.4,0,0,0,1.4-1.4v-2.1A1.4,1.4,0,0,0,15.436,44.771Zm-4.911,0H6.315v-.7h4.21Z" transform="translate(0 -42.666)" fill="#ef961a"/><path d="M16.645,266.421a.351.351,0,0,0-.368.035,1.385,1.385,0,0,1-.841.288H9.823V267.8a.351.351,0,0,1-.351.351h-2.1a.351.351,0,0,1-.351-.351v-1.052H1.4a1.385,1.385,0,0,1-.841-.288.351.351,0,0,0-.563.28v4.92a1.4,1.4,0,0,0,1.4,1.4H15.436a1.4,1.4,0,0,0,1.4-1.4v-4.92A.351.351,0,0,0,16.645,266.421Z" transform="translate(0 -259.026)" fill="#ef961a"/></g></g><path d="M3.986,7.972a3.986,3.986,0,0,1-2.818-6.8A3.986,3.986,0,1,1,6.8,6.8,3.96,3.96,0,0,1,3.986,7.972Zm0-5.826a1.84,1.84,0,1,0,1.84,1.84A1.842,1.842,0,0,0,3.986,2.146Z" transform="translate(-13509.655 -871)" fill="#ef961a"/></g></g></svg>