<svg xmlns="http://www.w3.org/2000/svg" width="23.98" height="21.149" viewBox="0 0 23.98 21.149">
  <g id="Page-1" transform="translate(-0.976 1.324)">
    <g id="_048---Money" data-name="048---Money" transform="translate(0.976 -1.324)">
      <path id="Shape" d="M1.056,12.66a10.533,10.533,0,0,0,19.069,4.86,1.016,1.016,0,0,0,.186-.583,1.036,1.036,0,0,0-1.885-.6,8.468,8.468,0,1,1,1.442-6.348H17.518a.413.413,0,0,0-.306.69l3.513,3.72a.413.413,0,0,0,.612,0l3.513-3.72a.413.413,0,0,0-.306-.69H21.965A10.539,10.539,0,0,0,1.056,12.66Z" transform="translate(-0.976 -0.833)" fill="#179385"/>
    </g>
    <path id="Path_479" data-name="Path 479" d="M11.8,10.745c-1.9,0-1.9-.594-1.9-.949,0-.459.665-.949,1.9-.949,1.124,0,1.315.605,1.328.966l.949-.017h.949a2.848,2.848,0,0,0-2.277-2.732V6.012h-1.9V7.03C8.976,7.344,8,8.574,8,9.8c0,1.063.493,2.846,3.8,2.846,1.9,0,1.9.641,1.9.949,0,.394-.588.949-1.9.949-1.747,0-1.887-.813-1.9-.949H8a2.985,2.985,0,0,0,2.846,2.77v1.025h1.9V16.357c1.87-.314,2.846-1.544,2.846-2.766C15.59,12.528,15.1,10.745,11.8,10.745Z" transform="translate(-0.614 -2.348)" fill="#179385"/>
  </g>
</svg>
