<svg xmlns="http://www.w3.org/2000/svg" viewBox="0 0 28.508 21.381">
  <defs>
    <style>
      .cls-1 {
        fill: #fce29a;
      }

      .cls-2 {
        fill: #ffa318;
      }
    </style>
  </defs>
  <g id="email-template" transform="translate(0 -64)">
    <g id="Group_104" data-name="Group 104" transform="translate(0 64)">
      <g id="Group_103" data-name="Group 103">
        <path id="Path_154" data-name="Path 154" class="cls-1" d="M25.8,155.179a.594.594,0,0,0-.628.071l-10.83,8.634-.107.07a2.444,2.444,0,0,1-2.475-.006L.957,155.61a.594.594,0,0,0-.957.47v12.972a2.378,2.378,0,0,0,2.376,2.376H23.757a2.378,2.378,0,0,0,2.376-2.376V155.714A.6.6,0,0,0,25.8,155.179Z" transform="translate(0 -150.046)"/>
        <path id="Path_155" data-name="Path 155" class="cls-1" d="M10.235,108.224l11.614,8.971a.576.576,0,0,0,.152.085,1.389,1.389,0,0,0,.436.065,1.208,1.208,0,0,0,.675-.2l11.446-9.124a.593.593,0,0,0-.042-.959,2.365,2.365,0,0,0-1.312-.4H11.823a2.36,2.36,0,0,0-1.634.657.594.594,0,0,0,.046.9Z" transform="translate(-9.448 -104.291)"/>
        <path id="Path_156" data-name="Path 156" class="cls-2" d="M72.36,64H50.979a2.352,2.352,0,0,0-2.026,1.188H71.172a2.378,2.378,0,0,1,2.376,2.376V82.655a2.352,2.352,0,0,0,1.188-2.026V66.376A2.378,2.378,0,0,0,72.36,64Z" transform="translate(-46.227 -64)"/>
      </g>
    </g>
  </g>
</svg>
