<svg xmlns="http://www.w3.org/2000/svg" width="34.809" height="18.802" viewBox="0 0 34.809 18.802"><g transform="translate(0 -5)"><path d="M32.233,5.9A2.53,2.53,0,0,0,30.3,5H9.293A2.525,2.525,0,0,0,6.8,7.109L4.471,20.849A2.53,2.53,0,0,0,6.966,23.8H27.972a2.525,2.525,0,0,0,2.5-2.109l2.326-13.74A2.525,2.525,0,0,0,32.233,5.9Zm-3.1,5.683-9.184,3.8a3.258,3.258,0,0,1-2.676-.087L8.926,11.19,9.3,8.963l8.924,4.4a1.136,1.136,0,0,0,.9.029L29.55,9.064Zm3.2-1.591.116-.723A.965.965,0,0,1,32.327,9.99Z" transform="translate(1.98)" fill="#228be6"/><path d="M5.785,8.893H1.446A1.446,1.446,0,0,1,1.446,6H5.785a1.446,1.446,0,0,1,0,2.893Z" transform="translate(0 0.446)" fill="#0e61a8"/><path d="M4.339,12.893H1.446a1.446,1.446,0,1,1,0-2.893H4.339a1.446,1.446,0,1,1,0,2.893Z" transform="translate(0 2.232)" fill="#0e61a8"/><path d="M2.893,16.893H1.446a1.446,1.446,0,0,1,0-2.893H2.893a1.446,1.446,0,0,1,0,2.893Z" transform="translate(0 4.017)" fill="#0e61a8"/></g></svg>