<svg xmlns="http://www.w3.org/2000/svg" width="24.251" height="24.251" viewBox="0 0 24.251 24.251">
  <g id="email-trigger" transform="translate(-160.528 -936.921)">
    <path id="Path_139" data-name="Path 139" d="M2151.491,950.308v-3.256l2.6-.519.849-1.7-1.274-2.784a14.37,14.37,0,0,1,1.274-1.321c.378-.283.472-.472.755-.472a12.852,12.852,0,0,1,1.982.991l1.274-.519,1.416-.472.708-2.17,1.982-.566,1.085.566,1.227,2.642,1.793.519,1.935-.991,1.557.472.991,2.5-.991,1.982,1.51,1.84,2.076.755-.425,3.067-2.548.566-.944,1.793,1.321,2.5-1.934,2.17-3.256-.849-1.793.849-.9,2.6-2.69-.472s.472-1.6,0-1.746-1.368-1.227-1.368-1.227h-2.029l-1.982.849-1.6-2.17.849-2.5-.849-1.793Z" transform="translate(-1990)" fill="#ebf5ff"/>
    <g id="settings" transform="translate(160.528 936.92)">
      <g id="Group_109" data-name="Group 109" transform="translate(0 0.001)">
        <path id="Path_138" data-name="Path 138" d="M23.01,9.581l-1.7-.289a9.611,9.611,0,0,0-.684-1.652l1-1.4a1.494,1.494,0,0,0-.162-1.93L19.955,2.8A1.487,1.487,0,0,0,18.9,2.357a1.472,1.472,0,0,0-.866.279l-1.408,1a9.512,9.512,0,0,0-1.712-.7l-.284-1.682A1.5,1.5,0,0,0,13.146,0H11.014A1.5,1.5,0,0,0,9.534,1.252L9.241,2.975a9.375,9.375,0,0,0-1.646.694l-1.393-1a1.5,1.5,0,0,0-1.93.162L2.756,4.338a1.5,1.5,0,0,0-.162,1.93L3.607,7.691a9.388,9.388,0,0,0-.674,1.657l-1.682.284A1.5,1.5,0,0,0,0,11.111v2.133a1.5,1.5,0,0,0,1.251,1.479l1.722.294a9.375,9.375,0,0,0,.694,1.646l-1,1.388a1.494,1.494,0,0,0,.162,1.93l1.51,1.51a1.487,1.487,0,0,0,1.059.441,1.472,1.472,0,0,0,.866-.279L7.69,20.64a9.584,9.584,0,0,0,1.6.659L9.575,23a1.5,1.5,0,0,0,1.479,1.251h2.138A1.5,1.5,0,0,0,14.671,23l.289-1.7a9.611,9.611,0,0,0,1.652-.684l1.4,1a1.487,1.487,0,0,0,.871.279h0a1.487,1.487,0,0,0,1.059-.441l1.51-1.51a1.5,1.5,0,0,0,.162-1.93l-1-1.408a9.542,9.542,0,0,0,.684-1.652l1.7-.284a1.5,1.5,0,0,0,1.251-1.479V11.06A1.479,1.479,0,0,0,23.01,9.581Zm-.117,3.612a.131.131,0,0,1-.111.132l-2.128.355a.68.68,0,0,0-.547.5,8.11,8.11,0,0,1-.881,2.123.685.685,0,0,0,.03.745l1.251,1.763a.138.138,0,0,1-.015.172l-1.51,1.51a.129.129,0,0,1-.1.041.124.124,0,0,1-.076-.025l-1.758-1.251a.685.685,0,0,0-.745-.03,8.11,8.11,0,0,1-2.123.881.672.672,0,0,0-.5.547l-.36,2.128a.131.131,0,0,1-.132.111H11.059a.131.131,0,0,1-.132-.111l-.355-2.128a.68.68,0,0,0-.5-.547,8.421,8.421,0,0,1-2.077-.851.7.7,0,0,0-.344-.091.667.667,0,0,0-.4.127L5.481,20.554a.151.151,0,0,1-.076.025.136.136,0,0,1-.1-.041L3.8,19.029a.137.137,0,0,1-.015-.172l1.246-1.748a.694.694,0,0,0,.03-.75,8.034,8.034,0,0,1-.892-2.118.694.694,0,0,0-.547-.5l-2.143-.365a.131.131,0,0,1-.111-.132V11.111a.131.131,0,0,1,.111-.132l2.113-.355a.685.685,0,0,0,.552-.507A8.1,8.1,0,0,1,5.01,7.99a.676.676,0,0,0-.035-.74L3.713,5.477a.138.138,0,0,1,.015-.172L5.238,3.8a.129.129,0,0,1,.1-.041.124.124,0,0,1,.076.025L7.158,5.027a.694.694,0,0,0,.75.03,8.034,8.034,0,0,1,2.118-.892.694.694,0,0,0,.5-.547l.365-2.143a.131.131,0,0,1,.132-.111h2.133a.131.131,0,0,1,.132.111l.355,2.113a.685.685,0,0,0,.507.552,8.223,8.223,0,0,1,2.173.892A.685.685,0,0,0,17.068,5l1.748-1.256a.151.151,0,0,1,.076-.025.136.136,0,0,1,.1.041L20.5,5.27a.137.137,0,0,1,.015.172L19.261,7.2a.685.685,0,0,0-.03.745,8.11,8.11,0,0,1,.881,2.123.672.672,0,0,0,.547.5l2.128.36a.131.131,0,0,1,.111.132v2.133Z" transform="translate(0 -0.001)" fill="#559de4"/>
      </g>
    </g>
    <g id="email" transform="translate(166.891 943.875)">
      <path id="Path_140" data-name="Path 140" d="M10.2,4H2.911A.91.91,0,0,0,2,4.911l0,5.464a.913.913,0,0,0,.911.911H10.2a.913.913,0,0,0,.911-.911V4.911A.913.913,0,0,0,10.2,4Zm0,1.821L6.554,8.1,2.911,5.821V4.911L6.554,7.188,10.2,4.911Z" transform="translate(-1.089 -2.179)" fill="#559de4"/>
      <path id="Path_141" data-name="Path 141" d="M0,0H10.929V10.929H0Z" fill="none"/>
    </g>
  </g>
</svg>
