<svg xmlns="http://www.w3.org/2000/svg" width="31.358" height="38.01" viewBox="0 0 31.358 38.01"><g transform="translate(-696 -563)"><g transform="translate(696 563)" fill="none"><path d="M2.851,0H28.507a2.851,2.851,0,0,1,2.851,2.851V35.159a2.851,2.851,0,0,1-2.851,2.851H2.851A2.851,2.851,0,0,1,0,35.159V2.851A2.851,2.851,0,0,1,2.851,0Z" stroke="none"/><path d="M 2.850746154785156 2 C 2.381635665893555 2 1.999996185302734 2.381641387939453 1.999996185302734 2.850749969482422 L 1.999996185302734 35.15922927856445 C 1.999996185302734 35.62833786010742 2.381635665893555 36.00997924804688 2.850746154785156 36.00997924804688 L 28.50748634338379 36.00997924804688 C 28.97659683227539 36.00997924804688 29.35823631286621 35.62833786010742 29.35823631286621 35.15922927856445 L 29.35823631286621 2.850749969482422 C 29.35823631286621 2.381641387939453 28.97659683227539 2 28.50748634338379 2 L 2.850746154785156 2 M 2.850746154785156 0 L 28.50748634338379 0 C 30.08190536499023 0 31.35823631286621 1.276321411132812 31.35823631286621 2.850749969482422 L 31.35823631286621 35.15922927856445 C 31.35823631286621 36.73365020751953 30.08190536499023 38.00997924804688 28.50748634338379 38.00997924804688 L 2.850746154785156 38.00997924804688 C 1.276327133178711 38.00997924804688 -3.814697265625e-06 36.73365020751953 -3.814697265625e-06 35.15922927856445 L -3.814697265625e-06 2.850749969482422 C -3.814697265625e-06 1.276321411132812 1.276327133178711 0 2.850746154785156 0 Z" stroke="none" fill="#3276D3"/></g><path d="M8.512,2A6.6,6.6,0,0,0,2,8.512a6.6,6.6,0,0,0,6.512,6.512,6.6,6.6,0,0,0,6.512-6.512A6.6,6.6,0,0,0,8.512,2Zm0,3.256a1.9,1.9,0,0,1,1.954,1.954A1.9,1.9,0,0,1,8.512,9.163,1.9,1.9,0,0,1,6.558,7.209,1.9,1.9,0,0,1,8.512,5.256ZM5.187,11.619a3.229,3.229,0,0,1,2.674-1.433h1.3a3.228,3.228,0,0,1,2.674,1.433,4.535,4.535,0,0,1-6.65,0Z" transform="translate(699.701 566.982)" fill="#3276D3"/><path d="M.95,0h17.1a.95.95,0,0,1,0,1.9H.95A.95.95,0,0,1,.95,0Z" transform="translate(701.701 585.806)" fill="#3276D3"/><path d="M.95,0H11.4a.95.95,0,1,1,0,1.9H.95A.95.95,0,0,1,.95,0Z" transform="translate(701.701 589.607)" fill="#3276D3"/><path d="M.95,0H13.3a.95.95,0,1,1,0,1.9H.95A.95.95,0,0,1,.95,0Z" transform="translate(701.701 593.408)" fill="#3276D3"/></g></svg>
