<svg xmlns="http://www.w3.org/2000/svg" width="26.973" height="26.973" viewBox="0 0 26.973 26.973"><g transform="translate(-566.513 -1100.263)"><circle cx="4" cy="4" r="4" transform="translate(581 1115)" fill="#fdefd8"/><path d="M20.285,14.61a5.68,5.68,0,0,1,4.8,8.7l3.884,3.909L27.22,28.973,23.286,25.1a5.675,5.675,0,1,1-3-10.492m0,2.522a3.153,3.153,0,1,0,3.153,3.153,3.153,3.153,0,0,0-3.153-3.153M12.088,2h5.044a2.522,2.522,0,0,1,2.522,2.522V7.044H24.7A2.522,2.522,0,0,1,27.22,9.566v6.343a8.2,8.2,0,1,0-12.85,10.05H4.522A2.521,2.521,0,0,1,2,23.437V9.566A2.513,2.513,0,0,1,4.522,7.044H9.566V4.522A2.513,2.513,0,0,1,12.088,2m5.044,5.044V4.522H12.088V7.044Z" transform="translate(564.513 1098.263)" fill="#e58c10"/></g></svg>