<svg xmlns="http://www.w3.org/2000/svg" width="22.112" height="25.271" viewBox="0 0 22.112 25.271">
  <path id="hand-back-left-off" d="M23.222,22.6,2.458,1.822,1.11,3.159,3.321,5.37a1.26,1.26,0,0,0-.221.684V16.847a8.4,8.4,0,0,0,15.763,4.064l3.022,3.022L23.222,22.6M5.732,12.635V7.781L6.785,8.834v3.8H5.732m4.738,0H9.418V11.467l1.053,1.053v.116m6.318.842-2.632-2.632V3.422a1.316,1.316,0,1,1,2.632,0V13.478m3.685,3.664L18.01,14.7l1.053-2.622a2.141,2.141,0,0,1,1.306-1.221l.832-.274a1.053,1.053,0,0,1,1.306,1.39l-2.032,5.17M9.418,6.107,6.785,3.475V2.9a1.316,1.316,0,0,1,2.632,0V6.107M13.1,9.793,10.471,7.16V1.316a1.316,1.316,0,0,1,2.632,0Z" transform="translate(-1.11)" fill="#f87171"/>
</svg>
