<svg xmlns="http://www.w3.org/2000/svg" viewBox="0 0 20.001 27.925">
  <defs>
    <style>
      .cls-1 {
        fill: #1593c0;
      }
    </style>
  </defs>
  <g id="pipes_1_" data-name="pipes (1)" transform="translate(-72.64)">
    <g id="Group_95" data-name="Group 95" transform="translate(72.64)">
      <path id="Path_138" data-name="Path 138" class="cls-1" d="M91.736,6.981H89.823a.907.907,0,0,0-.905.906v.5a10.381,10.381,0,0,0-6.97,2.46v-3.4h.869a.993.993,0,0,0,.992-.992V4.716a.994.994,0,0,0-.992-.993h-.869V.993A.994.994,0,0,0,80.956,0H75.494A.994.994,0,0,0,74.5.993V3.723h-.869a.994.994,0,0,0-.993.993V6.454a.994.994,0,0,0,.993.992H74.5V20.478h-.869a.994.994,0,0,0-.993.993v1.738a.994.994,0,0,0,.993.993H74.5v2.731a.994.994,0,0,0,.993.993h5.462a.994.994,0,0,0,.992-.993V24.2h.869a.994.994,0,0,0,.992-.993V21.471a.994.994,0,0,0-.992-.993h-.869v-1.77a8.1,8.1,0,0,1,6.97-3.8v.472a.906.906,0,0,0,.905.905h1.913a.906.906,0,0,0,.905-.905v-7.5A.907.907,0,0,0,91.736,6.981ZM82.818,21.409a.062.062,0,0,1,.061.062v1.738a.061.061,0,0,1-.061.062H73.633a.062.062,0,0,1-.062-.062V21.471a.062.062,0,0,1,.062-.062h9.185ZM81.483,6.516h-7.85a.062.062,0,0,1-.062-.061V4.716a.062.062,0,0,1,.062-.062h9.185a.062.062,0,0,1,.061.062V6.454a.061.061,0,0,1-.061.061H81.483Zm8.366,8.869,0-.941c0-.006,0-.01,0-.016V8.843a.434.434,0,0,0-.023-.112l0-.819h1.887l.026,7.447Z" transform="translate(-72.64)"/>
    </g>
  </g>
</svg>
