<svg xmlns="http://www.w3.org/2000/svg" viewBox="0 0 20.971 28.113">
  <defs>
    <style>
      .cls-1 {
        fill: #b6da3c;
      }
    </style>
  </defs>
  <path id="jobs-application-form" class="cls-1" d="M45.379,0H25.83a.711.711,0,0,0-.711.711V27.4a.711.711,0,0,0,.711.711H45.379a.711.711,0,0,0,.711-.711V.711A.711.711,0,0,0,45.379,0ZM35.254,3.037h6.611a.711.711,0,1,1,0,1.422H35.254a.711.711,0,0,1,0-1.422Zm0,3.661h6.611a.711.711,0,1,1,0,1.422H35.254a.711.711,0,0,1,0-1.422ZM29.829,5.623a1.076,1.076,0,0,1-.442-.869v-.64a1.078,1.078,0,0,1,2.156,0v.64a1.076,1.076,0,0,1-.442.869,1.9,1.9,0,0,1,1.466,1.845.711.711,0,0,1-.711.711H29.074a.711.711,0,0,1-.711-.711A1.9,1.9,0,0,1,29.829,5.623Zm-.769,4.736H41.865a.711.711,0,1,1,0,1.422H29.059a.711.711,0,1,1,0-1.422Zm0,3.661H41.865a.711.711,0,1,1,0,1.422H29.059a.711.711,0,1,1,0-1.422Zm0,3.661H41.865a.711.711,0,1,1,0,1.422H29.059a.711.711,0,1,1,0-1.422Zm3.59,6.525h-3.59a.711.711,0,1,1,0-1.422h3.59a.711.711,0,1,1,0,1.422Zm9.5,0h-3.59a.711.711,0,1,1,0-1.422h3.59a.711.711,0,1,1,0,1.422Z" transform="translate(-25.119)"/>
</svg>
