<svg xmlns="http://www.w3.org/2000/svg" width="33.784" height="27.569" viewBox="0 0 33.784 27.569"><g transform="translate(-949.216 -583)"><rect width="25" height="6" transform="translate(951 586)" fill="#ffd4b4"/><rect width="18" height="2.5" rx="1.25" transform="translate(965 598.932)" fill="#eb6b0c"/><rect width="13" height="2.5" rx="1.25" transform="translate(965 603)" fill="#eb6b0c"/><rect width="7" height="2.5" rx="1" transform="translate(965 607.068)" fill="#eb6b0c"/><g transform="translate(949.216 583)"><rect width="2" height="2" transform="translate(13 12)" fill="#eb6b0c"/><path d="M24.338,2.154H23.046V0H20.892V2.154H6.677V0H4.523V2.154H3.231A3.234,3.234,0,0,0,0,5.384V24.338a3.234,3.234,0,0,0,3.231,3.231H14.31a9.5,9.5,0,0,1-1.92-2.154H3.231a1.078,1.078,0,0,1-1.077-1.077V10.123H25.415V12.39a9.5,9.5,0,0,1,2.154,1.92V5.384A3.234,3.234,0,0,0,24.338,2.154Zm1.077,5.815H2.154V5.384A1.078,1.078,0,0,1,3.231,4.308H4.523V6.461H6.677V4.308H20.892V6.461h2.154V4.308h1.292a1.078,1.078,0,0,1,1.077,1.077Z" fill="#eb6b0c"/><rect width="2" height="2" transform="translate(8 17)" fill="#eb6b0c"/><rect width="2" height="2" transform="translate(4 17)" fill="#eb6b0c"/><rect width="2" height="2" transform="translate(4 12)" fill="#eb6b0c"/><rect width="2" height="2" transform="translate(4 21)" fill="#eb6b0c"/><rect width="2" height="2" transform="translate(8 12)" fill="#eb6b0c"/><rect width="2" height="2" transform="translate(8 21)" fill="#eb6b0c"/></g></g></svg>