<svg xmlns="http://www.w3.org/2000/svg" width="28.818" height="28.998" viewBox="0 0 28.818 28.998">
  <g id="bxs-phone-call" transform="translate(-3 5.764)">
    <path id="Path_7049" data-name="Path 7049" d="M17.655,14.385a1.093,1.093,0,0,0-1.519.047l-2.613,2.687a6.268,6.268,0,0,1-3.195-1.812,6.238,6.238,0,0,1-1.812-3.195L11.2,9.5a1.092,1.092,0,0,0,.047-1.519L7.213,3.543a1.092,1.092,0,0,0-1.519-.095L3.325,5.48a1.092,1.092,0,0,0-.317.709A16.49,16.49,0,0,0,7.694,17.944a16.533,16.533,0,0,0,11.362,4.693c.221,0,.356-.007.392-.009a1.083,1.083,0,0,0,.708-.318l2.031-2.37a1.092,1.092,0,0,0-.094-1.519Z" transform="translate(0 0.597)" fill="#415479"/>
    <path id="bxs-message-detail" d="M17.384,2H3.709A1.708,1.708,0,0,0,2,3.7v10.27a1.708,1.708,0,0,0,1.709,1.7H6.273v3.419L11.7,15.675h5.683a1.708,1.708,0,0,0,1.709-1.7V3.7A1.708,1.708,0,0,0,17.384,2Zm-5.128,9.4H6.273V9.692h5.983ZM14.82,7.983H6.273V6.273H14.82Z" transform="translate(12.724 -7.764)" fill="#415479"/>
  </g>
</svg>