<svg xmlns="http://www.w3.org/2000/svg" width="32.99" height="30.361" viewBox="0 0 32.99 30.361">
  <g id="Group_4935" data-name="Group 4935" transform="translate(-953.505 -435.5)">
    <g id="layer1" transform="translate(953.505 435.5)">
      <path id="path1417" d="M9.68,3.944,1.469,10.985a1.173,1.173,0,1,0,1.525,1.784l7.449-6.383,7.449,6.383a1.176,1.176,0,0,0,1.533-1.784l-8.22-7.041c-.574-.412-1-.174-1.525,0Z" transform="translate(5.718 17.312)" fill="#66aa94"/>
      <path id="path1413" d="M2.173.529A1.65,1.65,0,0,0,.529,2.185V21.971a1.65,1.65,0,0,0,1.644,1.656h29.69a1.65,1.65,0,0,0,1.656-1.656V2.185A1.65,1.65,0,0,0,31.863.529q-14.839,0-29.69,0Z" transform="translate(-0.529 -0.529)" fill="#c3fae8"/>
      <path id="path1425" d="M5.358,1.324a1.65,1.65,0,1,0,0,3.3H10.3a1.65,1.65,0,1,0,0-3.3Z" transform="translate(16.088 3.631)" fill="#84d9be"/>
      <path id="path1430" d="M5.358,2.117a1.65,1.65,0,1,0,0,3.3H10.3a1.65,1.65,0,1,0,0-3.3Z" transform="translate(16.088 7.782)" fill="#84d9be"/>
      <path id="path1434" d="M5.358,2.911a1.65,1.65,0,1,0,0,3.3H10.3a1.65,1.65,0,1,0,0-3.3Z" transform="translate(16.088 11.932)" fill="#84d9be"/>
    </g>
    <g id="Group_4736" data-name="Group 4736" transform="translate(957.388 441.17)">
      <g id="Group_739" data-name="Group 739" transform="translate(0 0)">
        <g id="Group_736" data-name="Group 736" transform="translate(3.618 0)">
          <ellipse id="Ellipse_186" data-name="Ellipse 186" cx="2.467" cy="2.467" rx="2.467" ry="2.467" transform="translate(0)" fill="#12b886"/>
        </g>
        <g id="Group_738" data-name="Group 738" transform="translate(0 6.65)">
          <path id="Path_442" data-name="Path 442" d="M7.087,13C5.056,13,1,14.02,1,16.044v2.283H13.174V16.044C13.174,14.02,9.119,13,7.087,13Z" transform="translate(-1 -13)" fill="#12b886" fill-rule="evenodd"/>
        </g>
      </g>
    </g>
  </g>
</svg>
