<svg xmlns="http://www.w3.org/2000/svg" viewBox="0 0 27 29.609">
  <defs>
    <style>
      .cls-1 {
        fill: #6e23c3;
      }

      .cls-2 {
        fill: #949ceb;
      }
    </style>
  </defs>
  <g id="plans" transform="translate(-13.085)">
    <path id="Path_135" data-name="Path 135" class="cls-1" d="M127.681,146.909a7.788,7.788,0,1,0,7.788-7.788A7.788,7.788,0,0,0,127.681,146.909Zm4.746-3.041a1.036,1.036,0,1,1-.3.733A1.045,1.045,0,0,1,132.427,143.867Zm6.084,6.083a1.036,1.036,0,1,1,.3-.733A1.045,1.045,0,0,1,138.51,149.95Zm-.014-6.069a1.037,1.037,0,0,1,0,1.466l-4.589,4.589a1.037,1.037,0,0,1-1.466-1.466l4.589-4.589A1.037,1.037,0,0,1,138.5,143.881Z" transform="translate(-103.172 -125.252)"/>
    <path id="Path_136" data-name="Path 136" class="cls-2" d="M22.436,21.657A9.872,9.872,0,0,1,32.3,11.8q.27,0,.537.015V1.037A1.037,1.037,0,0,0,31.8,0H14.122a1.037,1.037,0,0,0-1.037,1.037V28.572a1.037,1.037,0,0,0,1.037,1.037h12.35A9.853,9.853,0,0,1,22.436,21.657ZM18.948,5.507h7.343a1.037,1.037,0,1,1,0,2.073H18.948a1.037,1.037,0,1,1,0-2.073Zm0,5.507h7.343a1.037,1.037,0,0,1,0,2.073H18.948a1.037,1.037,0,1,1,0-2.073Zm1.836,7.58H18.948a1.037,1.037,0,1,1,0-2.073h1.836a1.037,1.037,0,0,1,0,2.073Z"/>
  </g>
</svg>
