<svg id="pipes" xmlns="http://www.w3.org/2000/svg" viewBox="0 0 29.028 29.028">
  <defs>
    <style>
      .cls-1 {
        fill: #4275d7;
      }
    </style>
  </defs>
  <g id="Group_94" data-name="Group 94">
    <path id="Path_137" data-name="Path 137" class="cls-1" d="M28,7.257H25.158V6.838a1.033,1.033,0,0,0-1.032-1.032H22.319a1.033,1.033,0,0,0-1.032,1.032v.419h-3.87v-2.9a.484.484,0,0,0-.484-.484h-.185l.484-.968h2.6a1.451,1.451,0,0,0,0-2.9H8.225a1.451,1.451,0,0,0,0,2.9h2.6l.484.968h-.185a.484.484,0,0,0-.484.484V8.272a14.537,14.537,0,0,0-9.18,13.015H1.032A1.033,1.033,0,0,0,0,22.319v1.806a1.033,1.033,0,0,0,1.032,1.032h.419V28a1.033,1.033,0,0,0,1.032,1.032H9.128A1.033,1.033,0,0,0,10.16,28V25.158h.419a1.033,1.033,0,0,0,1.032-1.032V22.319a1.033,1.033,0,0,0-1.032-1.032h-.395a5.81,5.81,0,0,1,5.781-5.322h5.322v.419a1.033,1.033,0,0,0,1.032,1.032h1.806a1.033,1.033,0,0,0,1.032-1.032v-.419H28a1.033,1.033,0,0,0,1.032-1.032V8.289A1.033,1.033,0,0,0,28,7.257Zm-17.417,15a.064.064,0,0,1,.064.064v1.806a.065.065,0,0,1-.064.064H1.032a.065.065,0,0,1-.064-.064V22.319a.064.064,0,0,1,.064-.064h9.547ZM16.15,2.9l-.484.968H12.394L11.91,2.9Zm.3,4.354h-.484c-.332,0-.66.015-.987.037l-.247.019c-.328.028-.652.062-.973.111h0c-.327.05-.649.115-.968.187l-.218.05c-.321.077-.639.163-.951.26l-.009,0V4.838h4.838Zm7.741,0v9.128a.065.065,0,0,1-.064.064H22.319a.065.065,0,0,1-.064-.064V6.838a.064.064,0,0,1,.064-.064h1.806a.064.064,0,0,1,.064.064Z"/>
  </g>
</svg>
