<svg xmlns="http://www.w3.org/2000/svg" width="89.181" height="104.325" viewBox="0 0 89.181 104.325">
  <g id="talent-pool-icon" transform="translate(-1080.133 -963.542)">
    <g id="twotone-group-24px" transform="translate(1080.133 978.686)">
      <path id="Path_139" data-name="Path 139" d="M0,0H89.181V89.181H0Z" fill="none"/>
      <circle id="Ellipse_4" data-name="Ellipse 4" cx="5.574" cy="5.574" r="5.574" transform="translate(27.869 26.011)" opacity="0.3"/>
      <path id="Path_140" data-name="Path 140" d="M4.34,20.395H38.972C35.851,18.24,28.307,15.75,21.656,15.75S7.461,18.24,4.34,20.395Z" transform="translate(11.787 42.775)" opacity="0.3"/>
      <path id="Path_141" data-name="Path 141" d="M54.171,37.737c4.31,3.121,7.283,7.283,7.283,12.783v6.5H76.318v-6.5C76.318,43.013,63.312,38.74,54.171,37.737Zm-3.865-6.726A13.006,13.006,0,1,0,50.306,5a12.8,12.8,0,0,0-5.574,1.3,20.293,20.293,0,0,1,0,23.41A12.8,12.8,0,0,0,50.306,31.011Z" transform="translate(5.432 13.579)" fill="#74a94f"/>
    </g>
    <g id="Group_66" data-name="Group 66" transform="translate(1108.01 963.542)">
      <g id="Group_63" data-name="Group 63">
        <path id="Path_136" data-name="Path 136" d="M173.567,9.766,165.53,8.6l-3.6-7.42a2.1,2.1,0,0,0-3.771,0l-3.6,7.42-8.037,1.168a2.1,2.1,0,0,0-1.161,3.575l5.822,5.675-1.374,8.013a2.1,2.1,0,0,0,3.041,2.209l7.2-3.783,7.2,3.783a2.1,2.1,0,0,0,3.041-2.209l-1.374-8.013,5.822-5.675A2.1,2.1,0,0,0,173.567,9.766Zm-8.376,7.017a2.1,2.1,0,0,0-.6,1.855l.843,4.914-4.413-2.32a2.1,2.1,0,0,0-1.95,0l-4.413,2.32.843-4.914a2.1,2.1,0,0,0-.6-1.855l-3.57-3.48,4.934-.717a2.1,2.1,0,0,0,1.584-1.159l2.2-4.534,2.2,4.534a2.1,2.1,0,0,0,1.584,1.159l4.934.717Z" transform="translate(-144.724 0)" fill="#fcbc27"/>
      </g>
    </g>
    <g id="twotone-group-24px-2" data-name="twotone-group-24px" transform="translate(1080.133 978.686)">
      <path id="Path_139-2" data-name="Path 139" d="M0,0H89.181V89.181H0Z" fill="none"/>
      <circle id="Ellipse_4-2" data-name="Ellipse 4" cx="6.574" cy="6.574" r="6.574" transform="translate(26.869 25.011)" fill="#8dc964"/>
      <path id="Path_140-2" data-name="Path 140" d="M4.34,20.549H40.118c-3.225-2.227-11.017-4.8-17.889-4.8S7.565,18.322,4.34,20.549Z" transform="translate(11.214 42.698)" fill="#8dc964"/>
      <path id="Path_141-2" data-name="Path 141" d="M28.011,31.011A13.006,13.006,0,1,0,15.006,18.006,13.02,13.02,0,0,0,28.011,31.011Zm0-18.579a5.574,5.574,0,1,1-5.574,5.574A5.566,5.566,0,0,1,28.011,12.432Zm0,25.082C19.316,37.514,2,41.861,2,50.519v6.5H54.022v-6.5C54.022,41.861,36.706,37.514,28.011,37.514ZM10.7,49.591c3.121-2.155,10.665-4.645,17.316-4.645s14.195,2.49,17.316,4.645Z" transform="translate(5.432 13.579)" fill="#8dc964"/>
    </g>
  </g>
</svg>
