<svg width="30" height="30" viewBox="0 0 30 30" fill="none" xmlns="http://www.w3.org/2000/svg">
<circle cx="15" cy="15" r="15" fill="#228BE6"/>
<mask id="mask0_298_33486" style="mask-type:alpha" maskUnits="userSpaceOnUse" x="3" y="3" width="24" height="24">
<rect x="3" y="3" width="24" height="24" fill="#D9D9D9"/>
</mask>
<g mask="url(#mask0_298_33486)">
<path d="M13.0546 17.775L21.5296 9.3C21.7296 9.1 21.9629 9 22.2296 9C22.4963 9 22.7296 9.1 22.9296 9.3C23.1296 9.5 23.2296 9.7375 23.2296 10.0125C23.2296 10.2875 23.1296 10.525 22.9296 10.725L13.7546 19.925C13.5546 20.125 13.3213 20.225 13.0546 20.225C12.7879 20.225 12.5546 20.125 12.3546 19.925L8.0546 15.625C7.8546 15.425 7.75877 15.1875 7.7671 14.9125C7.77543 14.6375 7.8796 14.4 8.0796 14.2C8.2796 14 8.5171 13.9 8.7921 13.9C9.0671 13.9 9.3046 14 9.5046 14.2L13.0546 17.775Z" fill="white"/>
</g>
</svg>
