<svg xmlns="http://www.w3.org/2000/svg" width="29.896" height="32.273" viewBox="0 0 29.896 32.273"><g transform="translate(-18.851)"><g transform="translate(18.851)"><g transform="translate(0)"><path d="M188.979,254.421a4.479,4.479,0,0,0,2.179,2.192v-7.648H187.6A12.761,12.761,0,0,0,188.979,254.421Z" transform="translate(-176.966 -233.272)" fill="#4778b9"/><path d="M267.818,248.965h0v7.648A4.478,4.478,0,0,0,270,254.421a12.763,12.763,0,0,0,1.376-5.456Z" transform="translate(-252.125 -233.272)" fill="#4778b9"/><path d="M188.979,106a12.763,12.763,0,0,0-1.376,5.456h3.555v-7.648A4.478,4.478,0,0,0,188.979,106Z" transform="translate(-176.966 -97.268)" fill="#4778b9"/><path d="M316.566,116a13.489,13.489,0,0,1,1.986,6.88h2.694A8.552,8.552,0,0,0,316.566,116Z" transform="translate(-297.8 -108.689)" fill="#4778b9"/><path d="M270,106a4.479,4.479,0,0,0-2.179-2.192v7.648h3.555A12.763,12.763,0,0,0,270,106Z" transform="translate(-252.125 -97.268)" fill="#4778b9"/><path d="M316.566,255.846a8.552,8.552,0,0,0,4.68-6.88h-2.694A13.489,13.489,0,0,1,316.566,255.846Z" transform="translate(-297.8 -233.273)" fill="#4778b9"/><path d="M46,23.568a14.942,14.942,0,1,0-6.169,5.048l6.942,3.532A1.127,1.127,0,0,0,48.351,30.8Zm-12.2,1.411A10.037,10.037,0,1,1,43.831,14.942,10.049,10.049,0,0,1,33.793,24.98Z" transform="translate(-18.851)" fill="#4778b9"/><path d="M121.013,248.965h0a8.553,8.553,0,0,0,4.68,6.88,13.49,13.49,0,0,1-1.986-6.88Z" transform="translate(-114.573 -233.272)" fill="#4778b9"/><path d="M125.695,116a8.552,8.552,0,0,0-4.68,6.88h2.694A13.487,13.487,0,0,1,125.695,116Z" transform="translate(-114.575 -108.689)" fill="#4778b9"/></g></g></g></svg>