<svg xmlns="http://www.w3.org/2000/svg" width="33.713" height="27.655" viewBox="0 0 33.713 27.655"><path d="M28.774,19.951l-1.184,1.58,1.58,1.185H25.605a3.946,3.946,0,0,0-3.811-2.963H11.918a3.946,3.946,0,0,0-3.811,2.963H5.926a3.951,3.951,0,1,1,0-7.9H8.107a3.946,3.946,0,0,0,3.811,2.963h9.877a3.946,3.946,0,0,0,3.811-2.963h2.181a5.926,5.926,0,0,0,0-11.852H25.605A3.946,3.946,0,0,0,21.795,0H11.918A3.946,3.946,0,0,0,8.107,2.963H7.243L3.555.2,2.371,1.778l1.58,1.185H0V4.938H3.951L2.371,6.124,3.555,7.7,7.243,4.938h.864A3.946,3.946,0,0,0,11.918,7.9h9.877a3.946,3.946,0,0,0,3.811-2.963h2.181a3.951,3.951,0,0,1,0,7.9H25.605a3.946,3.946,0,0,0-3.811-2.963H11.918A3.946,3.946,0,0,0,8.107,12.84H5.926a5.926,5.926,0,1,0,0,11.852H8.107a3.946,3.946,0,0,0,3.811,2.963h9.877a3.946,3.946,0,0,0,3.811-2.963H29.17l-1.58,1.185,1.184,1.58L33.713,23.7Zm0,0" fill="#00b7d8"/></svg>